<?xml version="1.0" encoding="UTF-8"?>
<svg width="15px" height="16px" viewBox="0 0 15 16" version="1.1" xmlns="http://www.w3.org/2000/svg" xmlns:xlink="http://www.w3.org/1999/xlink">
    <!-- Generator: Sketch 52 (66869) - http://www.bohemiancoding.com/sketch -->
    <title>分组 3</title>
    <desc>Created with Sketch.</desc>
    <defs>
        <polygon id="path-1" points="1.14076739 1.05149174 14.9839891 1.05149174 14.9839891 16.2797283 1.14076739 16.2797283"></polygon>
    </defs>
    <g id="Page-1" stroke="none" stroke-width="1" fill="none" fill-rule="evenodd">
        <g id="-课程表特殊情况-copy" transform="translate(-1225.000000, -166.000000)">
            <g id="分组-16" transform="translate(1214.000000, 156.000000)">
                <g id="分组" transform="translate(10.000000, 9.000000)">
                    <g transform="translate(0.392023, 0.094377)" id="分组-3">
                        <g>
                            <mask id="mask-2" fill="white">
                                <use xlink:href="#path-1"></use>
                            </mask>
                            <g id="Clip-2"></g>
                            <path d="M1.43254519,8.63867533 C1.25123009,8.81065481 1.14766313,9.04287818 1.14109903,9.29260581 C1.13453493,9.54233345 1.22555715,9.77980809 1.40118336,9.96506165 L7.29224661,15.8561249 C7.43753208,16.0709899 7.67150587,16.2207973 7.94092581,16.2539095 C7.97039134,16.2698092 8.00335772,16.2797283 8.03851214,16.2797283 C8.03953322,16.2797283 8.0405543,16.2797283 8.04157538,16.2797283 C8.17869219,16.2776862 8.31041185,16.245595 8.43046199,16.1884144 C8.58406199,16.1230651 8.71548991,16.016289 8.8127845,15.8829648 L14.712454,9.98329527 C15.0745007,9.62110268 15.0745007,9.03193801 14.712454,8.66974541 C14.3502614,8.30769869 13.7612426,8.30769869 13.3989042,8.66974541 L8.98957766,13.0792178 L8.98957766,1.97844513 C8.98957766,1.46732034 8.5737053,1.05144798 8.06258051,1.05144798 C7.55145573,1.05144798 7.13558336,1.46732034 7.13558336,1.97844513 L7.13558336,13.0542742 L2.75499305,8.67382974 C2.40023977,8.29953003 1.80669903,8.28377618 1.43254519,8.63867533" id="Fill-1" fill="#743efe" mask="url(#mask-2)"></path>
                        </g>
                    </g>
                </g>
            </g>
        </g>
    </g>
</svg>