<?xml version="1.0" encoding="UTF-8"?>
<svg width="14px" height="14px" viewBox="0 0 14 14" version="1.1" xmlns="http://www.w3.org/2000/svg" xmlns:xlink="http://www.w3.org/1999/xlink">
    <!-- Generator: Sketch 52 (66869) - http://www.bohemiancoding.com/sketch -->
    <title>搜索</title>
    <desc>Created with Sketch.</desc>
    <g id="Page-1" stroke="none" stroke-width="1" fill="none" fill-rule="evenodd">
        <g id="-老师管理" transform="translate(-241.000000, -158.000000)" fill="#B2B9CA">
            <g id="搜索" transform="translate(241.000000, 158.000000)">
                <path d="M2.83513705,9.76485663 C0.921620984,7.85124576 0.921620984,4.74881903 2.83513705,2.83520815 C4.74865311,0.921597282 7.85115254,0.921597282 9.7646686,2.83520815 C11.6784438,4.74881903 11.6784438,7.85124576 9.7646686,9.76485663 C7.85115254,11.6783811 4.74873949,11.6783811 2.83513705,9.76485663 M13.7182564,12.359853 L11.2885879,9.92988643 C13.0779607,7.48679359 12.8689606,4.03704387 10.6611642,1.82920743 C8.22251929,-0.609735811 4.2679462,-0.609735811 1.82930127,1.82920743 C-0.609767089,4.26815068 -0.609767089,8.22245679 1.82930127,10.6614 C4.03692827,12.8692365 7.48678476,13.078325 9.92983326,11.2887504 L12.3596711,13.7186323 C12.7348212,14.0937892 13.343191,14.0937892 13.7182564,13.7186323 C14.0939145,13.3434754 14.0939145,12.7350946 13.7182564,12.359853" id="Fill-1"></path>
            </g>
        </g>
    </g>
</svg>